<svg width="12" height="12" viewBox="0 0 12 12" fill="none" xmlns="http://www.w3.org/2000/svg">
<path d="M9.28571 6.03566V5.10709C9.28571 4.98135 9.23977 4.87253 9.14788 4.78064C9.05599 4.68875 8.94717 4.6428 8.82143 4.6428H6.5V2.32138C6.5 2.19563 6.45406 2.08681 6.36217 1.99493C6.27028 1.90303 6.16146 1.85709 6.03571 1.85709H5.10714C4.9814 1.85709 4.87258 1.90303 4.78069 1.99493C4.6888 2.08681 4.64286 2.19563 4.64286 2.32138V4.6428H2.32143C2.19568 4.6428 2.08687 4.68875 1.99498 4.78064C1.90309 4.87253 1.85714 4.98135 1.85714 5.10709V6.03566C1.85714 6.16141 1.90309 6.27022 1.99498 6.36211C2.08687 6.454 2.19568 6.49995 2.32143 6.49995H4.64286V8.82138C4.64286 8.94712 4.6888 9.05594 4.78069 9.14783C4.87258 9.23972 4.9814 9.28566 5.10714 9.28566H6.03571C6.16146 9.28566 6.27028 9.23972 6.36217 9.14783C6.45406 9.05594 6.5 8.94712 6.5 8.82138V6.49995H8.82143C8.94717 6.49995 9.05599 6.454 9.14788 6.36211C9.23977 6.27022 9.28571 6.16141 9.28571 6.03566ZM11.1429 2.08923V9.05352C11.1429 9.62904 10.9373 10.1199 10.5262 10.5262C10.12 10.9373 9.62909 11.1428 9.05357 11.1428H2.08929C1.51376 11.1428 1.02046 10.9373 0.609375 10.5262C0.203125 10.1199 0 9.62904 0 9.05352V2.08923C0 1.51371 0.203125 1.02283 0.609375 0.616576C1.02046 0.20549 1.51376 -5.28693e-05 2.08929 -5.28693e-05H9.05357C9.62909 -5.28693e-05 10.12 0.20549 10.5262 0.616576C10.9373 1.02283 11.1429 1.51371 11.1429 2.08923Z" fill="currentColor"/>
</svg>
