<svg width="45" height="45" viewBox="0 0 45 45" fill="none" xmlns="http://www.w3.org/2000/svg"><g clip-path="url(#clip0_6058_5047)"><mask id="mask0_6058_5047" style="mask-type:luminance" maskUnits="userSpaceOnUse" x="0" y="0" width="45" height="45"><path d="M45 0H0V45H45V0Z" fill="white"/></mask><g mask="url(#mask0_6058_5047)"><path d="M40.26 9.60001L27.8 5.58001C27.7 3.87001 26.3 2.51001 24.59 2.51001H5.72C3.94 2.51001 2.5 3.98001 2.5 5.78001V33.61C2.5 35.41 3.95 36.88 5.72 36.88H13L29.97 42.36C30.29 42.46 30.62 42.51 30.95 42.51C32.36 42.51 33.59 41.6 34.02 40.23L42.35 13.71C42.89 11.99 41.95 10.15 40.26 9.61001V9.60001ZM24.94 33.6C24.94 33.8 24.78 33.96 24.58 33.96H5.72C5.52 33.96 5.36 33.8 5.36 33.6V5.77001C5.36 5.57001 5.52 5.41001 5.72 5.41001H24.58C24.78 5.41001 24.94 5.57001 24.94 5.77001V33.6Z" fill="currentColor"/><path d="M20.94 23.61C19.56 24.93 17.57 25.17 15.97 24.36C16.01 24.79 16.06 25.11 16.1 25.24C16.33 26.03 17.53 26.84 17.13 27.41C16.73 27.98 16.35 27.19 14.84 27.15C13.33 27.1 12.9 27.87 12.54 27.28C12.17 26.68 13.41 25.94 13.69 25.17C13.74 25.03 13.8 24.72 13.87 24.3C12.22 25.01 10.25 24.65 8.95001 23.25C7.28001 21.46 7.36001 18.63 9.13001 16.94C10.83 15.32 15.3 11.39 15.3 11.39C15.3 11.39 19.54 15.58 21.14 17.3C22.81 19.09 22.73 21.92 20.96 23.61H20.94Z" fill="currentColor"/></g></g><defs><clipPath id="clip0_6058_5047"><rect width="45" height="45" fill="white"/></clipPath></defs></svg>