<svg width="45" height="45" viewBox="0 0 45 45" fill="none" xmlns="http://www.w3.org/2000/svg"><g clip-path="url(#clip0_6058_5036)"><mask id="mask0_6058_5036" style="mask-type:luminance" maskUnits="userSpaceOnUse" x="0" y="0" width="45" height="45"><path d="M45 0H0V45H45V0Z" fill="white"/></mask><g mask="url(#mask0_6058_5036)"><path d="M39.89 28.06H33.27V32.81H35.57C36.05 32.81 36.43 33.2 36.43 33.67V37.93C36.43 38.41 36.04 38.79 35.57 38.79H9.41999C8.93999 38.79 8.55999 38.4 8.55999 37.93V33.67C8.55999 33.19 8.94999 32.81 9.41999 32.81H11.72V28.06H5.09999C4.48999 28.06 3.98999 28.56 3.98999 29.17V42.43C3.98999 43.04 4.48999 43.54 5.09999 43.54H39.89C40.5 43.54 41 43.04 41 42.43V29.17C41 28.56 40.5 28.06 39.89 28.06Z" fill="currentColor"/><path d="M30.88 17.22C30.88 15.98 29.88 14.98 28.64 14.98H16.37C15.13 14.98 14.13 15.98 14.13 17.22V36.43H30.88V17.22ZM23.48 31.03V32.27C23.48 32.46 23.33 32.61 23.14 32.61H21.85C21.66 32.61 21.51 32.46 21.51 32.27V31.05C20.18 30.93 19.13 29.9 19 28.57C19 28.48 19.02 28.39 19.08 28.32C19.15 28.25 19.24 28.21 19.34 28.21H20.65C20.81 28.21 20.94 28.32 20.98 28.46C21.06 28.83 21.39 29.1 21.78 29.1H22.92C23.57 29.1 24.14 28.63 24.2 28.02C24.24 27.67 24.13 27.34 23.9 27.09C23.67 26.84 23.34 26.69 23 26.69H22.02C21.13 26.69 20.27 26.31 19.67 25.65C19.06 24.98 18.77 24.11 18.86 23.2C18.99 21.82 20.09 20.68 21.52 20.41V19.15C21.52 18.96 21.67 18.81 21.86 18.81H23.15C23.34 18.81 23.49 18.96 23.49 19.15V20.37C24.82 20.49 25.87 21.52 26 22.85C26 22.94 25.98 23.03 25.92 23.1C25.86 23.17 25.76 23.21 25.66 23.21H24.35C24.19 23.21 24.06 23.1 24.03 22.96C23.95 22.59 23.61 22.32 23.23 22.32H22.09C21.44 22.32 20.87 22.79 20.81 23.4C20.77 23.75 20.88 24.08 21.12 24.34C21.35 24.59 21.68 24.74 22.02 24.74H22.86C24.55 24.74 26 25.99 26.16 27.6C26.32 29.29 25.16 30.79 23.49 31.05L23.48 31.03Z" fill="currentColor"/><path d="M22.95 1.67002C22.72 1.39002 22.29 1.39002 22.05 1.67002L17.95 6.61002C17.63 6.99002 17.9 7.56002 18.4 7.56002H20.67V12.33C20.67 12.66 20.94 12.93 21.27 12.93H23.72C24.05 12.93 24.32 12.66 24.32 12.33V7.56002H26.59C27.08 7.56002 27.35 6.99002 27.04 6.61002L22.94 1.67002H22.95Z" fill="currentColor"/></g></g><defs><clipPath id="clip0_6058_5036"><rect width="45" height="45" fill="white"/></clipPath></defs></svg>