<svg width="45" height="45" viewBox="0 0 45 45" fill="none" xmlns="http://www.w3.org/2000/svg">
<g clip-path="url(#clip0_6058_5057)">
<mask id="mask0_6058_5057" style="mask-type:luminance" maskUnits="userSpaceOnUse" x="0" y="0" width="45" height="45">
<path d="M45 0H0V45H45V0Z" fill="white"/>
</mask>
<g mask="url(#mask0_6058_5057)">
<path d="M2.60003 16.04H42.4C42.82 16.04 43.16 15.7 43.16 15.29V13.66C43.16 13.28 42.95 12.94 42.61 12.77L23.24 1.7C22.78 1.44 22.2 1.44 21.74 1.7L2.39003 12.77C2.05003 12.94 1.84003 13.28 1.84003 13.66V15.29C1.84003 15.7 2.18003 16.04 2.60003 16.04Z" fill="currentColor"/>
<path d="M13.12 20.16L13.99 18.98C14.3 18.56 13.99 17.97 13.47 17.97H6.83998C6.30998 17.97 6.00998 18.56 6.31998 18.98L7.18998 20.16C7.48998 20.57 7.64998 21.06 7.64998 21.56V34.08C7.64998 34.58 7.48998 35.07 7.18998 35.48L6.31998 36.66C6.00998 37.08 6.31998 37.67 6.83998 37.67H13.47C14 37.67 14.3 37.08 13.99 36.66L13.12 35.48C12.82 35.07 12.66 34.58 12.66 34.08V21.56C12.66 21.06 12.82 20.57 13.12 20.16Z" fill="currentColor"/>
<path d="M37.82 20.16L38.69 18.98C39 18.56 38.69 17.97 38.17 17.97H31.54C31.01 17.97 30.71 18.56 31.02 18.98L31.89 20.16C32.19 20.57 32.35 21.06 32.35 21.56V34.08C32.35 34.58 32.19 35.07 31.89 35.48L31.02 36.66C30.71 37.08 31.02 37.67 31.54 37.67H38.17C38.7 37.67 39 37.08 38.69 36.66L37.82 35.48C37.52 35.07 37.36 34.58 37.36 34.08V21.56C37.36 21.06 37.52 20.57 37.82 20.16Z" fill="currentColor"/>
<path d="M21.63 36.08H23.36C23.59 36.08 23.78 35.89 23.78 35.66V34.23C25.52 33.85 26.8 32.49 26.96 30.82C27.07 29.71 26.71 28.64 25.95 27.81C25.2 27 24.13 26.53 23.02 26.53H21.94C21.54 26.53 21.16 26.35 20.89 26.05C20.63 25.75 20.52 25.34 20.59 24.95C20.7 24.31 21.32 23.83 22.03 23.83H23.03C23.7 23.83 24.27 24.31 24.38 24.97C24.41 25.16 24.59 25.3 24.79 25.3H26.53C26.65 25.3 26.77 25.25 26.85 25.16C26.93 25.07 26.97 24.96 26.96 24.85C26.81 23.12 25.5 21.7 23.77 21.37V19.97C23.77 19.74 23.58 19.55 23.35 19.55H21.62C21.39 19.55 21.2 19.74 21.2 19.97V21.37C19.21 21.75 17.82 23.58 18.02 25.58C18.21 27.55 20.02 29.09 22.12 29.09H23.03C23.43 29.09 23.81 29.27 24.08 29.57C24.34 29.87 24.45 30.27 24.39 30.67C24.28 31.31 23.66 31.79 22.95 31.79H21.95C21.28 31.79 20.71 31.31 20.6 30.66C20.57 30.47 20.39 30.34 20.19 30.34H18.45C18.33 30.34 18.21 30.39 18.13 30.48C18.05 30.57 18.01 30.67 18.02 30.79C18.17 32.52 19.48 33.94 21.21 34.27V35.68C21.21 35.91 21.4 36.1 21.63 36.1V36.08Z" fill="currentColor"/>
<path d="M43.1 39.59H1.9C1.40294 39.59 1 39.993 1 40.49V42.6C1 43.0971 1.40294 43.5 1.9 43.5H43.1C43.5971 43.5 44 43.0971 44 42.6V40.49C44 39.993 43.5971 39.59 43.1 39.59Z" fill="currentColor"/>
</g>
</g>
<defs>
<clipPath id="clip0_6058_5057">
<rect width="45" height="45" fill="white"/>
</clipPath>
</defs>
</svg>
