<svg width="19" height="22" viewBox="0 0 19 22" fill="none" xmlns="http://www.w3.org/2000/svg"><g clip-path="url(#clip0_6074_11231)"><mask id="mask0_6074_11231" style="mask-type:luminance" maskUnits="userSpaceOnUse" x="0" y="0" width="19" height="22"><path d="M19 0H0V22H19V0Z" fill="white"/></mask><g mask="url(#mask0_6074_11231)"><path d="M12.5573 1.87846C12.5919 1.81923 12.6264 1.76 12.6696 1.70077C12.9546 1.27769 13.231 0.846154 13.516 0.423077C13.6283 0.262308 13.6283 0.126923 13.4728 0H13.3001C13.0064 0.431538 12.7042 0.863077 12.4105 1.29462C12.1342 1.70923 12.1428 1.70077 11.6592 1.54846C10.6142 1.21 9.53462 1.12538 8.44643 1.30308C7.9628 1.37923 7.4878 1.53154 7.0128 1.66692C6.89189 1.70077 6.84007 1.69231 6.77098 1.58231C6.48598 1.13385 6.19234 0.693846 5.89871 0.253846C5.83825 0.169231 5.76916 0.0930769 5.70007 0.00846153H5.52734C5.36325 0.143846 5.38916 0.279231 5.50144 0.448462C5.82962 0.922308 6.13189 1.40462 6.45144 1.87846C4.49098 2.93615 3.29916 4.43385 3.35962 6.71846H15.6405C15.6923 4.43385 14.5005 2.93615 12.5487 1.87846H12.5573ZM6.65871 4.66231C6.33053 4.66231 6.07144 4.40846 6.08007 4.08692C6.08007 3.77385 6.33916 3.52 6.65871 3.52C6.97825 3.52 7.25462 3.78231 7.25462 4.09538C7.25462 4.41692 6.99553 4.67077 6.65871 4.67077V4.66231ZM12.3414 4.66231C12.0133 4.66231 11.7455 4.4 11.7542 4.08692C11.7542 3.77385 12.0392 3.51154 12.3587 3.52C12.6783 3.52 12.9287 3.77385 12.9287 4.09538C12.9287 4.42538 12.6783 4.67077 12.3414 4.67077V4.66231Z" fill="#D2D3D8"/><path d="M15.5892 7.28544H3.40332V7.52236C3.40332 10.3401 3.40332 13.1662 3.40332 15.9839C3.40332 16.0516 3.40332 16.1277 3.40332 16.1954C3.43787 16.7962 3.86105 17.2531 4.46559 17.3039C4.85423 17.3377 5.26014 17.3208 5.64877 17.3293C5.7265 17.3293 5.80423 17.3293 5.89923 17.3377C5.89923 17.4393 5.89923 17.5239 5.89923 17.6085C5.89923 18.5562 5.89923 19.5124 5.9165 20.4601C5.92514 20.9001 6.15832 21.2385 6.54696 21.4585C7.46241 21.9916 8.5765 21.3824 8.59377 20.3416C8.61105 19.4193 8.59377 18.497 8.59377 17.5747C8.59377 17.4985 8.59377 17.4224 8.59377 17.3462H10.4074V17.5916C10.4074 18.497 10.4074 19.3939 10.4074 20.2993C10.4074 20.807 10.6147 21.2047 11.0551 21.467C11.9792 22.0001 13.076 21.3824 13.0933 20.3162C13.1106 19.4024 13.0933 18.4801 13.0933 17.5662C13.0933 17.4901 13.0933 17.4139 13.0933 17.3293C13.266 17.3293 13.4129 17.3293 13.5597 17.3293C13.8101 17.3293 14.0606 17.3293 14.3197 17.3293C15.1056 17.3124 15.6065 16.8301 15.6065 16.0685C15.6065 13.1916 15.6065 10.3147 15.6065 7.43775C15.6065 7.38698 15.6065 7.34467 15.5979 7.27698L15.5892 7.28544Z" fill="#D2D3D8"/><path d="M18.931 11.1862C18.931 10.2893 18.931 9.39233 18.931 8.50387C18.931 8.36002 18.931 8.20771 18.8964 8.06387C18.7323 7.41233 18.1278 7.00617 17.4369 7.07387C16.7719 7.14156 16.271 7.66617 16.245 8.33464C16.2364 8.68156 16.245 9.02848 16.245 9.36694C16.245 10.8731 16.245 12.3793 16.245 13.8939C16.245 14.3931 16.4351 14.8077 16.8755 15.07C17.7996 15.62 18.9137 15.0023 18.931 13.9277C18.9482 13.0139 18.931 12.0916 18.931 11.1777V11.1862Z" fill="#D2D3D8"/><path d="M2.11602 7.25154C1.22647 6.73539 0.0605638 7.3277 0.0692002 8.41923C0.0778366 9.33308 0.0692002 10.2554 0.0692002 11.1692C0.0692002 12.1169 0.0519275 13.0731 0.0692002 14.0208C0.0864729 14.7485 0.673746 15.2731 1.3992 15.2731C2.13329 15.2731 2.73784 14.7315 2.73784 14.0038C2.75511 12.1169 2.74647 10.23 2.73784 8.33462C2.73784 7.86924 2.51329 7.48847 2.09875 7.25154H2.11602Z" fill="#D2D3D8"/></g></g><defs><clipPath id="clip0_6074_11231"><rect width="19" height="22" fill="white"/></clipPath></defs></svg>