<svg width="19" height="22" viewBox="0 0 19 22" fill="none" xmlns="http://www.w3.org/2000/svg"><g clip-path="url(#clip0_6074_11232)"><mask id="mask0_6074_11232" style="mask-type:luminance" maskUnits="userSpaceOnUse" x="0" y="0" width="19" height="22"><path d="M19 0H0V22H19V0Z" fill="white"/></mask><g mask="url(#mask0_6074_11232)"><path d="M9.34409 5.12769C10.5359 5.08538 11.5118 4.56923 12.2977 3.72308C13.265 2.67385 13.7486 1.43846 13.5932 0H13.4205C13.3255 0.0169231 13.2305 0.0423077 13.1355 0.0592308C11.1577 0.558462 9.845 1.75154 9.26637 3.68077C9.12818 4.14615 9.10228 4.62846 9.20591 5.12769C9.26637 5.12769 9.30091 5.12769 9.34409 5.12769Z" fill="#D2D3D8"/><path d="M15.744 11.6007C15.5799 9.64613 16.4522 8.16536 18.1708 7.14997C18.0153 6.98074 17.8858 6.80305 17.7217 6.6592C17.4367 6.40536 17.1431 6.14305 16.8235 5.92305C15.7872 5.21228 14.6472 4.88228 13.369 5.02613C12.6608 5.11074 11.9872 5.33074 11.3308 5.59305C10.5535 5.89766 9.75897 6.00766 8.93852 5.7792C8.44624 5.64382 7.97124 5.46613 7.48761 5.31382C6.77079 5.0769 6.0367 4.94151 5.2767 5.01766C4.33533 5.11074 3.49761 5.48305 2.75488 6.03305C1.7617 6.7692 1.01033 7.69151 0.604425 8.8592C0.129425 10.2554 0.103516 11.6854 0.328061 13.1238C0.630334 15.0615 1.36443 16.8384 2.46124 18.4715C3.01397 19.3092 3.61852 20.1046 4.43897 20.7138C5.00033 21.1369 5.63079 21.3823 6.35624 21.34C6.84852 21.3146 7.29761 21.1454 7.73806 20.9423C8.59306 20.5446 9.49124 20.3669 10.4412 20.4684C11.0803 20.5277 11.659 20.7561 12.2376 21.0184C12.9544 21.3484 13.6972 21.4669 14.4572 21.1707C15.0012 20.9592 15.4503 20.6123 15.8562 20.2061C16.979 19.0469 17.834 17.71 18.5335 16.2715C18.6285 16.0769 18.7149 15.8738 18.8099 15.6707C16.9703 14.8838 15.9167 13.53 15.7526 11.6007H15.744Z" fill="#D2D3D8"/></g></g><defs><clipPath id="clip0_6074_11232"><rect width="19" height="22" fill="white"/></clipPath></defs></svg>