<svg xmlns="http://www.w3.org/2000/svg" width="22" height="22" viewBox="0 0 22 22" fill="none"><path d="M10.68 0C4.78 0 0 4.78 0 10.68C0 16.58 4.78 21.36 10.68 21.36C16.58 21.36 21.36 16.58 21.36 10.68C21.36 4.78 16.58 0 10.68 0ZM14.53 11.45L8.56 15.88C8.3 16.07 7.99 16.17 7.69 16.17C7.25 16.17 6.81 15.97 6.52 15.58C6.04 14.93 6.17 14.02 6.82 13.54L11.06 10.39L7.02 7.89C6.34 7.47 6.13 6.57 6.55 5.89C6.97 5.21 7.87 4.99 8.55 5.42L14.42 9.05C14.83 9.3 15.09 9.74 15.11 10.23C15.13 10.72 14.91 11.17 14.52 11.46L14.53 11.45Z" fill="currentColor"/></svg>