<svg width="67" height="16" viewBox="0 0 67 16" fill="none" xmlns="http://www.w3.org/2000/svg">
<path d="M0 0.256348H4.3374L9.99756 8.57227V0.256348H14.376V15.2886H9.99756L4.36816 7.03418V15.2886H0V0.256348ZM17.4521 0.256348H29.9004V3.46582H22.1074V5.85498H29.3364V8.9209H22.1074V11.8843H30.126V15.2886H17.4521V0.256348ZM31.0898 0.256348H35.499L37.0884 8.6543L39.4058 0.256348H43.8047L46.1323 8.6543L47.7217 0.256348H52.1104L48.7983 15.2886H44.2456L41.6104 5.82422L38.9854 15.2886H34.4326L31.0898 0.256348ZM52.8281 10.3154L57.2476 10.0386C57.3433 10.7563 57.5381 11.3032 57.832 11.6792C58.3105 12.2876 58.9941 12.5918 59.8828 12.5918C60.5459 12.5918 61.0552 12.438 61.4106 12.1304C61.7729 11.8159 61.9541 11.4536 61.9541 11.0435C61.9541 10.6538 61.7832 10.3052 61.4414 9.99756C61.0996 9.68994 60.3066 9.39941 59.0625 9.12598C57.0254 8.66797 55.5728 8.05957 54.7046 7.30078C53.8296 6.54199 53.3921 5.57471 53.3921 4.39893C53.3921 3.62646 53.6143 2.89844 54.0586 2.21484C54.5098 1.52441 55.1831 0.984375 56.0786 0.594727C56.981 0.198242 58.2148 0 59.7803 0C61.7012 0 63.1641 0.358887 64.1689 1.07666C65.1807 1.7876 65.7822 2.92236 65.9736 4.48096L61.5952 4.7373C61.479 4.06055 61.2329 3.56836 60.8569 3.26074C60.4878 2.95312 59.9751 2.79932 59.3188 2.79932C58.7788 2.79932 58.3721 2.91553 58.0986 3.14795C57.8252 3.37354 57.6885 3.65039 57.6885 3.97852C57.6885 4.21777 57.8013 4.43311 58.0269 4.62451C58.2456 4.82275 58.7651 5.00732 59.5854 5.17822C61.6157 5.61572 63.0684 6.06006 63.9434 6.51123C64.8252 6.95557 65.4644 7.50928 65.8608 8.17236C66.2642 8.83545 66.4658 9.57715 66.4658 10.3975C66.4658 11.3613 66.1992 12.25 65.666 13.0635C65.1328 13.877 64.3877 14.4956 63.4307 14.9194C62.4736 15.3364 61.2671 15.5449 59.811 15.5449C57.2544 15.5449 55.4839 15.0527 54.4995 14.0684C53.5151 13.084 52.958 11.833 52.8281 10.3154Z" fill="currentColor"/>
</svg>
